<svg width="20" height="32" viewBox="0 0 20 32" fill="none" xmlns="http://www.w3.org/2000/svg">
<path d="M9.88 0C6.48 0 3.96 1.04 2.36 2.64C0.76 4.24 0.2 6.24 0 7.76L4 8.28C4.16 7.28 4.48 6.28 5.24 5.52C6 4.76 7.2 4 9.88 4C12.52 4 13.96 4.64 14.76 5.36C15.56 6.08 15.88 6.96 15.88 8C15.88 11.32 14.52 12.24 12.52 14C10.52 15.76 7.88 18.32 7.88 23V24H11.88V23C11.88 19.68 13.12 18.76 15.12 17C17.12 15.24 19.88 12.68 19.88 8C19.88 6.08 19.2 3.92 17.52 2.36C15.8 0.8 13.24 0 9.88 0V0ZM7.88 28V32H11.88V28H7.88Z" fill="white"/>
</svg>
