<svg width="12" height="14" viewBox="0 0 12 14" fill="none" xmlns="http://www.w3.org/2000/svg">
<path d="M1.71429 0C1.59429 0 1.49143 0.0171429 1.38857 0.0514286C0.72 0.188571 0.188571 0.72 0.0514286 1.38857C0 1.49143 0 1.59429 0 1.71429V11.1429C0 12.5657 1.14857 13.7143 2.57143 13.7143H12V12H2.57143C2.09143 12 1.71429 11.6229 1.71429 11.1429C1.71429 10.6629 2.09143 10.2857 2.57143 10.2857H12V0.857143C12 0.377143 11.6229 0 11.1429 0H10.2857V5.14286L8.57143 3.42857L6.85714 5.14286V0H1.71429Z" fill="white"/>
</svg>
