<svg width="54" height="52" viewBox="0 0 54 52" fill="none" xmlns="http://www.w3.org/2000/svg">
<path d="M26.52 0C11.6025 0 0 11.6025 0 26.52C0 43.9238 15.7463 51.3825 18.2325 51.3825C19.89 51.3825 19.89 50.5538 19.89 49.725V45.5813C14.0888 47.2388 11.6025 43.9238 10.7738 41.4375C10.7738 41.4375 10.7738 40.6088 9.11625 38.9513C8.2875 38.1225 4.9725 36.465 8.2875 36.465C10.7738 36.465 12.4313 39.78 12.4313 39.78C14.9175 43.095 18.2325 42.2663 19.89 41.4375C19.89 39.78 21.5475 38.1225 21.5475 38.1225C14.9175 37.2938 9.945 34.8075 9.945 25.6913C9.945 22.3763 10.7738 19.89 12.4313 18.2325C12.4313 18.2325 10.7738 14.9175 12.4313 10.7738C12.4313 10.7738 16.575 10.7738 19.89 14.0888C22.3763 12.4313 30.6638 12.4313 33.15 14.0888C36.465 10.7738 40.6088 10.7738 40.6088 10.7738C42.2663 16.575 40.6088 18.2325 40.6088 18.2325C42.2663 19.89 43.095 22.3763 43.095 25.6913C43.095 34.8075 37.2938 37.2938 31.4925 38.1225C32.3213 38.9513 33.15 40.6088 33.15 43.095V49.725C33.15 50.5538 33.15 51.3825 34.8075 51.3825C37.2938 51.3825 53.04 43.9238 53.04 26.52C53.04 11.6025 41.4375 0 26.52 0Z" fill="white"/>
</svg>
